G04 ================== begin FILE IDENTIFICATION RECORD ==================*
G04 Layout Name:  C:/Users/user/Desktop/orcad work/ex2_rlc/allegro/ex2_rlc.brd*
G04 Film Name:    SilktT*
G04 File Format:  Gerber RS274X*
G04 File Origin:  Cadence Allegro 17.2-S038*
G04 Origin Date:  Thu Jul 11 11:35:47 2019*
G04 *
G04 Layer:  REF DES/SILKSCREEN_TOP*
G04 Layer:  PACKAGE GEOMETRY/SILKSCREEN_TOP*
G04 Layer:  BOARD GEOMETRY/SILKSCREEN_TOP*
G04 *
G04 Offset:    (0.000 0.000)*
G04 Mirror:    No*
G04 Mode:      Positive*
G04 Rotation:  0*
G04 FullContactRelief:  No*
G04 UndefLineWidth:     0.200*
G04 ================== end FILE IDENTIFICATION RECORD ====================*
%FSLAX25Y25*MOMM*%
%IR0*IPPOS*OFA0.00000B0.00000*MIA0B0*SFA1.00000B1.00000*%
%ADD10C,.2*%
G75*
%LPD*%
G75*
G54D10*
G01X1495600Y1838500D02*
X1503400Y1843400D01*
X1508700Y1849200D01*
X1511300Y1856100D01*
X1508700Y1863800D01*
X1503400Y1869700D01*
X1495600Y1875500D01*
X1485100Y1877500D01*
X1432600D01*
G01X1511300Y1936700D02*
X1432600D01*
X1448300Y1925000D01*
G01X1511300D02*
Y1948400D01*
G01X1778000Y1841500D02*
X1524000D01*
Y2349500D01*
X1778000D01*
Y1841500D01*
G01X3098800Y3533600D02*
X3177500D01*
Y3509200D01*
X3173600Y3501400D01*
X3168300Y3496600D01*
X3157800Y3494600D01*
X3147300Y3496600D01*
X3140800Y3502400D01*
X3136800Y3509200D01*
Y3533600D01*
G01Y3509200D02*
X3098800Y3494600D01*
G01Y3435400D02*
X3177500D01*
X3161800Y3447100D01*
G01X3098800D02*
Y3423700D01*
G01X2628900Y3810000D02*
X3340100D01*
Y3556000D01*
X2628900D01*
Y3810000D01*
G01X3597100Y1536700D02*
Y1458000D01*
X3572700D01*
X3564900Y1461900D01*
X3560100Y1467200D01*
X3558100Y1477700D01*
X3560100Y1488200D01*
X3565900Y1494700D01*
X3572700Y1498700D01*
X3597100D01*
G01X3572700D02*
X3558100Y1536700D01*
G01X3517400Y1471100D02*
X3511600Y1463200D01*
X3504700Y1459300D01*
X3497000Y1458000D01*
X3487200Y1460600D01*
X3480400Y1467200D01*
X3478500Y1475100D01*
X3479400Y1482900D01*
X3483300Y1489500D01*
X3502800Y1502600D01*
X3511600Y1511800D01*
X3517400Y1524900D01*
X3519300Y1536700D01*
X3478500D01*
G01X3873500Y2006600D02*
Y1295400D01*
X3619500D01*
Y2006600D01*
X3873500D01*
G01X6032500Y1905000D02*
G03I-254000J0D01*
G01X5241100Y2250000D02*
X5231500Y2256400D01*
X5220200Y2260600D01*
X5207400D01*
X5192900Y2254200D01*
X5181600Y2243700D01*
X5173600Y2231000D01*
X5167100Y2209800D01*
X5165500Y2190700D01*
X5168800Y2171700D01*
X5173600Y2159000D01*
X5183200Y2146300D01*
X5194500Y2137800D01*
X5205700Y2133600D01*
X5217000D01*
X5228300Y2137800D01*
X5237900Y2144200D01*
X5246000Y2152600D01*
G01X5335200Y2133600D02*
Y2260600D01*
X5315900Y2235200D01*
G01Y2133600D02*
X5354500D01*
G01X5376700Y3799800D02*
Y3721100D01*
X5415700D01*
G01X5474900D02*
Y3799800D01*
X5463200Y3784100D01*
G01Y3721100D02*
X5486600D01*
G01X5486400Y3530600D02*
Y3708400D01*
X5689600D01*
Y3530600D01*
X5486400D01*
M02*
