G04 ================== begin FILE IDENTIFICATION RECORD ==================*
G04 Layout Name:  C:/Users/user/Desktop/orcad work/ex2_rlc/allegro/ex2_rlc.brd*
G04 Film Name:    TOP*
G04 File Format:  Gerber RS274X*
G04 File Origin:  Cadence Allegro 17.2-S038*
G04 Origin Date:  Thu Jul 11 11:35:47 2019*
G04 *
G04 Layer:  ETCH/TOP*
G04 Layer:  PIN/TOP*
G04 Layer:  VIA CLASS/TOP*
G04 *
G04 Offset:    (0.000 0.000)*
G04 Mirror:    No*
G04 Mode:      Positive*
G04 Rotation:  0*
G04 FullContactRelief:  No*
G04 UndefLineWidth:     0.000*
G04 ================== end FILE IDENTIFICATION RECORD ====================*
%FSLAX25Y25*MOMM*%
%IR0*IPPOS*OFA0.00000B0.00000*MIA0B0*SFA1.00000B1.00000*%
%ADD11C,1.524*%
%ADD12C,1.651*%
%ADD13R,1.27X1.6*%
%ADD10C,.635*%
%ADD14C,.254*%
%ADD15C,.308*%
%ADD17C,1.782*%
%ADD16R,5.084X5.084*%
G75*
%LPD*%
G75*
G36*
G01X300000Y300000D02*
Y4700000D01*
X6700000D01*
Y300000D01*
X300000D01*
G37*
%LPC*%
G75*
G36*
G01X1604600Y3575200D02*
X1758800Y3729400D01*
X2372800D01*
G02Y3636600I103700J-46400D01*
G01X1797200D01*
X1697400Y3536800D01*
Y3180600D01*
X3010000D01*
X3421900Y2768700D01*
Y1189400D01*
X3642800D01*
G02X3850200I103700J-46400D01*
G01X5632300D01*
X5732100Y1289200D01*
Y1681400D01*
G02X5824900I46400J96600D01*
G01Y1250800D01*
X5670700Y1096600D01*
X3850200D01*
G02X3642800I-103700J46400D01*
G01X3421900D01*
Y914300D01*
X3137000Y629400D01*
X825700D01*
Y317300D01*
X317300D01*
Y825700D01*
X540900D01*
G03X548200Y843100I60J10206D01*
G01X451600Y939700D01*
Y2921100D01*
X758900Y3228400D01*
G02X767600Y3224800I3610J-3589D01*
G01Y3180600D01*
X1604600D01*
Y3575200D01*
G37*
G36*
G01X5254600Y3644700D02*
X3593700D01*
G02Y3721300I-101200J38300D01*
G01X5286400D01*
X5316400Y3691300D01*
G03X5333800Y3698500I7212J7197D01*
G01Y3699500D01*
G02X5359400Y3725100I25600J0D01*
G01X5486400D01*
G02X5512000Y3699500I0J-25600D01*
G01Y3539500D01*
G02X5486400Y3513900I-25600J0D01*
G01X5359400D01*
G02X5333800Y3539500I0J25600D01*
G01Y3581200D01*
X5318100D01*
X5254600Y3644700D01*
G37*
G36*
G01X5664000Y3539500D02*
Y3699500D01*
G02X5689600Y3725100I25600J0D01*
G01X5816600D01*
G02X5842200Y3699500I0J-25600D01*
G01Y3539500D01*
G02X5816600Y3513900I-25600J0D01*
G01X5791400D01*
Y2174900D01*
X5816800Y2149500D01*
Y2126300D01*
G02X5723100Y2117400I-38315J-94306D01*
G03X5724800Y2133200I-5531J8587D01*
G01X5546700Y2311200D01*
X3787800D01*
X3784800Y2308200D01*
Y2260200D01*
G02X3708200I-38300J-101200D01*
G01Y2340000D01*
X3756000Y2387800D01*
X5578500D01*
X5697400Y2268900D01*
G03X5714800Y2276100I7212J7197D01*
G01Y3513900D01*
X5689600D01*
G02X5664000Y3539500I0J25600D01*
G37*
G54D16*
X6413500Y4381500D03*
Y571500D03*
X571500Y4381500D03*
%LPD*%
G75*
G36*
G01X482600Y2908300D02*
X727900Y3153600D01*
G02X736600Y3150000I3602J-3609D01*
G01Y3149600D01*
X2997200D01*
X3390900Y2755900D01*
Y1189400D01*
X1754100D01*
X1697400Y1246100D01*
Y1871900D01*
G03X1604600I-46400J96600D01*
G01Y1207700D01*
X1715700Y1096600D01*
X3390900D01*
Y927100D01*
X3124200Y660400D01*
X825700D01*
Y825700D01*
X609400D01*
X482600Y952500D01*
Y2908300D01*
G37*
%LPC*%
G75*
G54D17*
X1651000Y2222500D03*
%LPD*%
G75*
G54D10*
X571500Y571500D03*
Y4381500D03*
X6413500Y571500D03*
Y4381500D03*
G54D11*
X1651000Y1968500D03*
Y2222500D03*
X5778500Y1778000D03*
Y2032000D03*
G54D12*
X2476500Y3683000D03*
X3492500D03*
X3746500Y1143000D03*
Y2159000D03*
G54D13*
X5422900Y3619500D03*
X5753100D03*
G54D14*
G01Y2159000D02*
X5562600Y2349500D01*
X3771900D01*
X3746500Y2324100D01*
Y2159000D01*
G01X3492500Y3683000D02*
X5270500D01*
X5334000Y3619500D01*
X5422900D01*
G01X5753100D02*
Y2159000D01*
G01X5778500Y2032000D02*
Y2133600D01*
X5753100Y2159000D01*
G54D15*
G01X3746500Y1143000D02*
X1734900D01*
X1651000Y1226900D01*
Y1968500D01*
G01Y2128300D02*
Y2222500D01*
G01X2476500Y3683000D02*
X1778000D01*
X1651000Y3556000D01*
Y2222500D01*
G01X1556800D02*
X1651000D01*
G01D02*
X1745200D01*
G01X5778500Y1778000D02*
Y1270000D01*
X5651500Y1143000D01*
X3746500D01*
M02*
